# xmcd CD database file
#
# Track frame offsets:
#	150
#	20697
#	41265
#	63242
#	85836
#	97882
#	116964
#	127361
#	145714
#	162928
#	182019
#
# Disc length: 2695 seconds
#
# Revision: 0
# Processed by: cddbd v1.4PL0 Copyright (c) Steve Scherf et al.
# Submitted via: CDex 1.40Beta8
#
DISCID=920a850b
DTITLE=Sade - Lovers Rock
DYEAR=2001
DGENRE=Blues
TTITLE0=By your side
TTITLE1=Flow
TTITLE2=King of sorrow
TTITLE3=Somebody already broke my heart
TTITLE4=All about our love
TTITLE5=Slave song
TTITLE6=The sweetest gift
TTITLE7=Every word
TTITLE8=Immigrant
TTITLE9=Lovers rock
TTITLE10=It's only love that gets you throught
EXTD=YEAR: 2001 ID3G: 0
EXTT0=
EXTT1=
EXTT2=
EXTT3=
EXTT4=
EXTT5=
EXTT6=
EXTT7=
EXTT8=
EXTT9=
EXTT10=
PLAYORDER=
